<?xml version="1.0" encoding="UTF-8" standalone="no"?>
<!-- Created with Inkscape (http://www.inkscape.org/) -->

<svg
   width="96"
   height="96"
   viewBox="0 0 25.4 25.4"
   version="1.1"
   id="svg5"
   xml:space="preserve"
   inkscape:version="1.2.2 (b0a8486541, 2022-12-01)"
   sodipodi:docname="ProjectLogo.svg"
   inkscape:export-filename="ProjectLogo.png"
   inkscape:export-xdpi="96"
   inkscape:export-ydpi="96"
   xmlns:inkscape="http://www.inkscape.org/namespaces/inkscape"
   xmlns:sodipodi="http://sodipodi.sourceforge.net/DTD/sodipodi-0.dtd"
   xmlns="http://www.w3.org/2000/svg"
   xmlns:svg="http://www.w3.org/2000/svg"><sodipodi:namedview
     id="namedview7"
     pagecolor="#ffffff"
     bordercolor="#666666"
     borderopacity="1.0"
     inkscape:showpageshadow="2"
     inkscape:pageopacity="0.0"
     inkscape:pagecheckerboard="0"
     inkscape:deskcolor="#d1d1d1"
     inkscape:document-units="px"
     showgrid="false"
     inkscape:zoom="18.135417"
     inkscape:cx="38.350373"
     inkscape:cy="48"
     inkscape:window-width="3840"
     inkscape:window-height="2008"
     inkscape:window-x="0"
     inkscape:window-y="0"
     inkscape:window-maximized="1"
     inkscape:current-layer="layer1" /><defs
     id="defs2" /><g
     inkscape:label="Ebene 1"
     inkscape:groupmode="layer"
     id="layer1"
     transform="translate(0,25.4)"><path
       d="m 11.509378,-15.808856 h 2.248959 v 1.12448 h -2.248959 z m -0.28112,-1.124477 c -0.465606,0 -0.84336,0.377754 -0.84336,0.84336 v 1.686717 c 0,0.465604 0.377754,0.843358 0.84336,0.843358 h 0.84336 v 0.56224 H 7.5737002 c -0.310989,0 -0.562239,0.25125 -0.562239,0.56224 0,0.310988 0.25125,0.562239 0.562239,0.562239 h 1.6867191 v 0.56224 h -0.84336 c -0.4656041,0 -0.8433591,0.377754 -0.8433591,0.843358 v 1.6867197 c 0,0.465602 0.377755,0.843357 0.8433591,0.843357 h 2.8111987 c 0.465604,0 0.84336,-0.377755 0.84336,-0.843357 v -1.6867197 c 0,-0.465604 -0.377756,-0.843358 -0.84336,-0.843358 h -0.84336 v -0.56224 h 4.497915 v 0.56224 h -0.843358 c -0.465604,0 -0.84336,0.377754 -0.84336,0.843358 v 1.6867197 c 0,0.465602 0.377756,0.843357 0.84336,0.843357 h 2.811197 c 0.465604,0 0.84336,-0.377755 0.84336,-0.843357 v -1.6867197 c 0,-0.465604 -0.377756,-0.843358 -0.84336,-0.843358 h -0.843359 v -0.56224 h 1.686719 c 0.310988,0 0.562238,-0.251251 0.562238,-0.562239 0,-0.31099 -0.25125,-0.56224 -0.562238,-0.56224 h -4.497917 v -0.56224 h 0.84336 c 0.465606,0 0.843358,-0.377754 0.843358,-0.843358 v -1.686717 c 0,-0.465606 -0.377752,-0.84336 -0.843358,-0.84336 z m -2.5300777,7.8713517 v -1.1244797 h 2.2489577 v 1.1244797 z m 5.6223947,-1.1244797 h 2.248957 v 1.1244797 h -2.248957 z"
       id="path88"
       style="stroke-width:0.529166" /><path
       d="m 18.785416,-2.8112082 c 0.418374,0 0.760676,-0.3422999 0.760676,-0.7606698 v -13.692187 h -3.803383 c -0.8415,0 -1.521354,-0.679854 -1.521354,-1.521354 v -3.803383 H 6.6145842 c -0.4183709,0 -0.760677,0.342302 -0.760677,0.760676 v 18.256248 c 0,0.4183699 0.342306,0.7606698 0.760677,0.7606698 z M 3.5718774,-21.828126 c 0,-1.678244 1.3644642,-3.042707 3.0427068,-3.042707 h 7.8682528 c 0.808222,0 1.583158,0.318532 2.153667,0.88904 l 4.302585,4.302578 c 0.570502,0.57051 0.889034,1.345448 0.889034,2.153668 v 13.953669 c 0,1.6782476 -1.364466,3.04271125 -3.042707,3.04271125 H 6.6145842 c -1.6782426,0 -3.0427068,-1.36446365 -3.0427068,-3.04271125 z"
       id="path205"
       style="stroke-width:0.529164" /><text
       xml:space="preserve"
       style="font-style:normal;font-variant:normal;font-weight:bold;font-stretch:normal;font-size:5.36052px;line-height:1.25;font-family:'Courier New';-inkscape-font-specification:'Courier New, Bold';font-variant-ligatures:normal;font-variant-caps:normal;font-variant-numeric:normal;font-variant-east-asian:normal;letter-spacing:0px;word-spacing:0px;stroke-width:0.529166"
       x="6.2453914"
       y="-3.7043445"
       id="text268"><tspan
         sodipodi:role="line"
         id="tspan266"
         style="font-style:normal;font-variant:normal;font-weight:bold;font-stretch:normal;font-size:5.36052px;font-family:'Courier New';-inkscape-font-specification:'Courier New, Bold';font-variant-ligatures:normal;font-variant-caps:normal;font-variant-numeric:normal;font-variant-east-asian:normal;stroke-width:0.529166"
         x="6.2453914"
         y="-3.7043445">TFTP</tspan></text></g></svg>
